<svg id="visual" viewBox="0 0 1920 1080" width="1920" height="1080" xmlns="http://www.w3.org/2000/svg" xmlns:xlink="http://www.w3.org/1999/xlink" version="1.1"><rect x="0" y="0" width="1920" height="1080" fill="#282828"></rect><path d="M0 880L40 854.7C80 829.3 160 778.7 240 780.7C320 782.7 400 837.3 480 831.7C560 826 640 760 720 760.5C800 761 880 828 960 831.7C1040 835.3 1120 775.7 1200 776.8C1280 778 1360 840 1440 835.3C1520 830.7 1600 759.3 1680 727.3C1760 695.3 1840 702.7 1880 706.3L1920 710L1920 1081L1880 1081C1840 1081 1760 1081 1680 1081C1600 1081 1520 1081 1440 1081C1360 1081 1280 1081 1200 1081C1120 1081 1040 1081 960 1081C880 1081 800 1081 720 1081C640 1081 560 1081 480 1081C400 1081 320 1081 240 1081C160 1081 80 1081 40 1081L0 1081Z" fill="#A020F0" stroke-linecap="round" stroke-linejoin="miter"></path></svg>