<svg id="visual" viewBox="0 0 900 600" width="900" height="600" xmlns="http://www.w3.org/2000/svg" xmlns:xlink="http://www.w3.org/1999/xlink" version="1.1"><rect x="0" y="0" width="900" height="600" fill="#ffffff"></rect><path d="M0 384L8.8 378.8C17.7 373.7 35.3 363.3 53 362C70.7 360.7 88.3 368.3 106 380.5C123.7 392.7 141.3 409.3 159 413.3C176.7 417.3 194.3 408.7 212 410.3C229.7 412 247.3 424 265 427.8C282.7 431.7 300.3 427.3 318 428.5C335.7 429.7 353.3 436.3 371 425.8C388.7 415.3 406.3 387.7 423.8 372.2C441.3 356.7 458.7 353.3 476.2 367.2C493.7 381 511.3 412 529 412.2C546.7 412.3 564.3 381.7 582 374.7C599.7 367.7 617.3 384.3 635 395.2C652.7 406 670.3 411 688 409.2C705.7 407.3 723.3 398.7 741 394C758.7 389.3 776.3 388.7 794 382.5C811.7 376.3 829.3 364.7 847 365.8C864.7 367 882.3 381 891.2 388L900 395L900 601L891.2 601C882.3 601 864.7 601 847 601C829.3 601 811.7 601 794 601C776.3 601 758.7 601 741 601C723.3 601 705.7 601 688 601C670.3 601 652.7 601 635 601C617.3 601 599.7 601 582 601C564.3 601 546.7 601 529 601C511.3 601 493.7 601 476.2 601C458.7 601 441.3 601 423.8 601C406.3 601 388.7 601 371 601C353.3 601 335.7 601 318 601C300.3 601 282.7 601 265 601C247.3 601 229.7 601 212 601C194.3 601 176.7 601 159 601C141.3 601 123.7 601 106 601C88.3 601 70.7 601 53 601C35.3 601 17.7 601 8.8 601L0 601Z" fill="#b24bf3"></path><path d="M0 467L8.8 458.8C17.7 450.7 35.3 434.3 53 433.8C70.7 433.3 88.3 448.7 106 447.8C123.7 447 141.3 430 159 426.7C176.7 423.3 194.3 433.7 212 438.8C229.7 444 247.3 444 265 441.5C282.7 439 300.3 434 318 436.7C335.7 439.3 353.3 449.7 371 449C388.7 448.3 406.3 436.7 423.8 436.3C441.3 436 458.7 447 476.2 450.7C493.7 454.3 511.3 450.7 529 443C546.7 435.3 564.3 423.7 582 421.5C599.7 419.3 617.3 426.7 635 424.3C652.7 422 670.3 410 688 415C705.7 420 723.3 442 741 449.3C758.7 456.7 776.3 449.3 794 438.8C811.7 428.3 829.3 414.7 847 414.7C864.7 414.7 882.3 428.3 891.2 435.2L900 442L900 601L891.2 601C882.3 601 864.7 601 847 601C829.3 601 811.7 601 794 601C776.3 601 758.7 601 741 601C723.3 601 705.7 601 688 601C670.3 601 652.7 601 635 601C617.3 601 599.7 601 582 601C564.3 601 546.7 601 529 601C511.3 601 493.7 601 476.2 601C458.7 601 441.3 601 423.8 601C406.3 601 388.7 601 371 601C353.3 601 335.7 601 318 601C300.3 601 282.7 601 265 601C247.3 601 229.7 601 212 601C194.3 601 176.7 601 159 601C141.3 601 123.7 601 106 601C88.3 601 70.7 601 53 601C35.3 601 17.7 601 8.8 601L0 601Z" fill="#a03de0"></path><path d="M0 472L8.8 473C17.7 474 35.3 476 53 476.5C70.7 477 88.3 476 106 481.2C123.7 486.3 141.3 497.7 159 491.7C176.7 485.7 194.3 462.3 212 453.3C229.7 444.3 247.3 449.7 265 451.8C282.7 454 300.3 453 318 454.7C335.7 456.3 353.3 460.7 371 469.5C388.7 478.3 406.3 491.7 423.8 487.5C441.3 483.3 458.7 461.7 476.2 450.3C493.7 439 511.3 438 529 441C546.7 444 564.3 451 582 453.8C599.7 456.7 617.3 455.3 635 453.3C652.7 451.3 670.3 448.7 688 453.3C705.7 458 723.3 470 741 474.8C758.7 479.7 776.3 477.3 794 470.3C811.7 463.3 829.3 451.7 847 450.8C864.7 450 882.3 460 891.2 465L900 470L900 601L891.2 601C882.3 601 864.7 601 847 601C829.3 601 811.7 601 794 601C776.3 601 758.7 601 741 601C723.3 601 705.7 601 688 601C670.3 601 652.7 601 635 601C617.3 601 599.7 601 582 601C564.3 601 546.7 601 529 601C511.3 601 493.7 601 476.2 601C458.7 601 441.3 601 423.8 601C406.3 601 388.7 601 371 601C353.3 601 335.7 601 318 601C300.3 601 282.7 601 265 601C247.3 601 229.7 601 212 601C194.3 601 176.7 601 159 601C141.3 601 123.7 601 106 601C88.3 601 70.7 601 53 601C35.3 601 17.7 601 8.8 601L0 601Z" fill="#8f2ecd"></path><path d="M0 523L8.8 520.2C17.7 517.3 35.3 511.7 53 510.5C70.7 509.3 88.3 512.7 106 512.7C123.7 512.7 141.3 509.3 159 510.2C176.7 511 194.3 516 212 515.7C229.7 515.3 247.3 509.7 265 505.3C282.7 501 300.3 498 318 496.7C335.7 495.3 353.3 495.7 371 494.7C388.7 493.7 406.3 491.3 423.8 496.3C441.3 501.3 458.7 513.7 476.2 520C493.7 526.3 511.3 526.7 529 523C546.7 519.3 564.3 511.7 582 510.3C599.7 509 617.3 514 635 511.3C652.7 508.7 670.3 498.3 688 500.7C705.7 503 723.3 518 741 524.3C758.7 530.7 776.3 528.3 794 529.5C811.7 530.7 829.3 535.3 847 535.8C864.7 536.3 882.3 532.7 891.2 530.8L900 529L900 601L891.2 601C882.3 601 864.7 601 847 601C829.3 601 811.7 601 794 601C776.3 601 758.7 601 741 601C723.3 601 705.7 601 688 601C670.3 601 652.7 601 635 601C617.3 601 599.7 601 582 601C564.3 601 546.7 601 529 601C511.3 601 493.7 601 476.2 601C458.7 601 441.3 601 423.8 601C406.3 601 388.7 601 371 601C353.3 601 335.7 601 318 601C300.3 601 282.7 601 265 601C247.3 601 229.7 601 212 601C194.3 601 176.7 601 159 601C141.3 601 123.7 601 106 601C88.3 601 70.7 601 53 601C35.3 601 17.7 601 8.8 601L0 601Z" fill="#7d1ebb"></path><path d="M0 565L8.8 560.2C17.7 555.3 35.3 545.7 53 540.7C70.7 535.7 88.3 535.3 106 537.7C123.7 540 141.3 545 159 551.3C176.7 557.7 194.3 565.3 212 562.2C229.7 559 247.3 545 265 543.7C282.7 542.3 300.3 553.7 318 557.8C335.7 562 353.3 559 371 554C388.7 549 406.3 542 423.8 544.3C441.3 546.7 458.7 558.3 476.2 562C493.7 565.7 511.3 561.3 529 556C546.7 550.7 564.3 544.3 582 542.7C599.7 541 617.3 544 635 549.3C652.7 554.7 670.3 562.3 688 562.2C705.7 562 723.3 554 741 549.7C758.7 545.3 776.3 544.7 794 549C811.7 553.3 829.3 562.7 847 567.3C864.7 572 882.3 572 891.2 572L900 572L900 601L891.2 601C882.3 601 864.7 601 847 601C829.3 601 811.7 601 794 601C776.3 601 758.7 601 741 601C723.3 601 705.7 601 688 601C670.3 601 652.7 601 635 601C617.3 601 599.7 601 582 601C564.3 601 546.7 601 529 601C511.3 601 493.7 601 476.2 601C458.7 601 441.3 601 423.8 601C406.3 601 388.7 601 371 601C353.3 601 335.7 601 318 601C300.3 601 282.7 601 265 601C247.3 601 229.7 601 212 601C194.3 601 176.7 601 159 601C141.3 601 123.7 601 106 601C88.3 601 70.7 601 53 601C35.3 601 17.7 601 8.8 601L0 601Z" fill="#6c0ba9"></path></svg>